<svg width="204" height="58" viewBox="0 0 204 58" fill="none" xmlns="http://www.w3.org/2000/svg">
<path d="M57.1674 56.8687L49.8581 28.7033L48.4098 28.6245L46.0879 35.5546L29.933 26.6915L22.9065 9.26312L0.940879 0.595215L0 1.53609L8.6679 23.5018L26.0963 30.5282L34.9594 46.6832L28.0293 49.005L28.1081 50.4533L56.2735 57.7626L57.1674 56.8687ZM7.98193 14.4838L4.37643 5.51526L4.84687 5.04482L13.8154 8.65032L7.98193 14.4838ZM48.8781 33.4522L51.1956 42.382L46.9526 41.1394L48.5136 33.4484L48.8807 33.4496L48.8781 33.4522ZM40.81 47.8398L42.0526 52.0828L33.1228 49.7653L33.1217 49.3982L40.8126 47.8372L40.81 47.8398Z" fill="#E8E8E8"/>
<path d="M68.3136 51.4902H65.6449V50.5285L71.6556 34.6604H74.4926L80.5032 50.5285V51.4902H77.6662L76.1756 47.3309H69.8283L68.3136 51.4902ZM73.026 38.5072L70.6939 44.9266H75.31L73.026 38.5072ZM93.3709 51.4902H82.4315V34.6604H85.3166V48.9658H93.3709V51.4902ZM96.627 51.4902H93.8621V50.5285L99.1274 42.7868L94.2708 35.6221V34.6604H97.204L100.931 40.5268L104.825 34.6604H107.59V35.6221L102.686 42.7628L107.999 50.5285V51.4902H105.066L100.858 45.0949L96.627 51.4902ZM117.392 51.4902H115.3V34.6604H122.345C125.23 34.6604 126.985 36.6319 126.985 39.7334C126.985 42.8349 125.23 44.7824 122.345 44.7824H117.392V51.4902ZM117.392 36.5117V42.9311H121.984C123.715 42.9311 124.845 41.753 124.845 39.7334C124.845 37.6898 123.715 36.5117 121.984 36.5117H117.392ZM132.188 51.7787C129.856 51.7787 128.101 50.5045 128.101 48.1964C128.101 45.6719 129.856 44.2534 133.222 44.2534H136.324V43.0272C136.324 41.5126 135.362 40.5989 133.462 40.5989C131.635 40.5989 130.625 41.5366 130.625 42.883H128.75C128.75 40.4787 130.385 38.8438 133.462 38.8438C136.564 38.8438 138.247 40.4787 138.247 42.907V51.4902H137.093L136.372 49.9275C135.506 50.9132 133.943 51.7787 132.188 51.7787ZM132.573 50.0236C133.919 50.0236 135.169 49.4466 136.324 48.2926V45.8162H133.222C131.082 45.8162 130.024 46.5375 130.024 47.98C130.024 49.3264 131.034 50.0236 132.573 50.0236ZM143.293 51.4902H141.369V39.1324H142.379L143.076 40.7672C144.231 39.493 145.577 38.8438 147.116 38.8438H147.428V40.7192H147.164C145.553 40.7192 144.255 41.2962 143.293 42.4502V51.4902ZM155.643 51.4902H154.489C153.071 51.4902 152.037 51.1056 151.436 50.3602C150.835 49.5909 150.546 48.6292 150.546 47.4751V40.8153H148.527V39.1324H150.546V36.5598H152.47V39.1324H155.643V40.8153H152.47V47.427C152.47 48.9658 153.143 49.7351 154.489 49.7351H155.643V51.4902ZM160 51.4902H158.076V39.1324H159.23L159.903 40.7672C161.033 39.493 162.38 38.8438 163.967 38.8438C166.539 38.8438 168.246 40.5749 168.246 43.4841V51.4902H166.323V43.7004C166.323 41.6568 165.217 40.5989 163.582 40.5989C162.284 40.5989 161.082 41.2481 160 42.5464V51.4902ZM175.964 51.7787C172.766 51.7787 170.819 50.0236 170.819 47.2347V43.436C170.819 40.647 172.79 38.8438 175.964 38.8438C179.066 38.8438 180.965 40.5989 180.965 43.3879V45.9604H172.742V47.1866C172.742 48.8936 173.92 50.0236 175.964 50.0236C177.719 50.0236 178.729 49.2783 178.969 47.7877H180.893C180.676 50.2641 178.921 51.7787 175.964 51.7787ZM172.742 43.3879V44.3977H179.042V43.3879C179.042 41.7289 177.912 40.5989 175.892 40.5989C173.896 40.5989 172.742 41.7289 172.742 43.3879ZM185.581 51.4902H183.658V39.1324H184.668L185.365 40.7672C186.519 39.493 187.866 38.8438 189.404 38.8438H189.717V40.7192H189.452C187.841 40.7192 186.543 41.2962 185.581 42.4502V51.4902ZM196.218 51.7787C193.044 51.7787 190.832 50.1919 190.832 47.3068H192.756C192.756 49.0619 194.319 50.0236 196.362 50.0236C198.117 50.0236 199.247 49.2302 199.247 48.1483C199.247 47.2828 198.694 46.8019 197.324 46.4413L194.27 45.6479C192.371 45.167 191.313 44.3015 191.313 42.4743C191.313 40.3345 193.14 38.8438 196.098 38.8438C199.103 38.8438 200.978 40.3345 200.978 43.1955H199.055C199.055 41.4885 197.805 40.5989 195.953 40.5989C194.198 40.5989 193.237 41.3683 193.237 42.3541C193.237 43.2196 193.717 43.6283 194.992 43.989L197.997 44.7343C200.089 45.2392 201.171 46.1528 201.171 48.0041C201.171 50.2881 199.271 51.7787 196.218 51.7787Z" fill="#E8E8E8"/>
</svg>
