<svg width="120" height="15" viewBox="0 0 120 15" fill="none" xmlns="http://www.w3.org/2000/svg">
<g style="mix-blend-mode:difference">
<path d="M2.98 14H0.36V13.06L5.2 -9.53674e-07H7.98L12.84 13.06V14H10.04L8.92 10.72H4.14L2.98 14ZM6.54 3.8L4.98 8.36H8.06L6.54 3.8ZM24.2031 14H14.9631V-9.53674e-07H17.8031V11.52H24.2031V14ZM27.8503 14H25.1303V13.06L29.4103 6.72L25.5303 0.939999V-9.53674e-07H28.4303L31.1703 4.5L34.0903 -9.53674e-07H36.8103V0.939999L32.8903 6.7L37.2103 13.06V14H34.3303L31.1103 9L27.8503 14ZM46.0609 14H44.3209V-9.53674e-07H50.1809C52.5809 -9.53674e-07 54.0409 1.64 54.0409 4.22C54.0409 6.8 52.5809 8.42 50.1809 8.42H46.0609V14ZM46.0609 1.54V6.88H49.8809C51.3209 6.88 52.2609 5.9 52.2609 4.22C52.2609 2.52 51.3209 1.54 49.8809 1.54H46.0609ZM58.9694 14.24C57.0294 14.24 55.5694 13.18 55.5694 11.26C55.5694 9.16 57.0294 7.98 59.8294 7.98H62.4094V6.96C62.4094 5.7 61.6094 4.94 60.0294 4.94C58.5094 4.94 57.6694 5.72 57.6694 6.84H56.1094C56.1094 4.84 57.4694 3.48 60.0294 3.48C62.6094 3.48 64.0094 4.84 64.0094 6.86V14H63.0494L62.4494 12.7C61.7294 13.52 60.4294 14.24 58.9694 14.24ZM59.2894 12.78C60.4094 12.78 61.4494 12.3 62.4094 11.34V9.28H59.8294C58.0494 9.28 57.1694 9.88 57.1694 11.08C57.1694 12.2 58.0094 12.78 59.2894 12.78ZM68.8069 14H67.2069V3.72H68.0469L68.6269 5.08C69.5869 4.02 70.7069 3.48 71.9869 3.48H72.2469V5.04H72.0269C70.6869 5.04 69.6069 5.52 68.8069 6.48V14ZM79.6808 14H78.7208C77.5408 14 76.6808 13.68 76.1808 13.06C75.6808 12.42 75.4408 11.62 75.4408 10.66V5.12H73.7608V3.72H75.4408V1.58H77.0408V3.72H79.6808V5.12H77.0408V10.62C77.0408 11.9 77.6008 12.54 78.7208 12.54H79.6808V14ZM83.9045 14H82.3045V3.72H83.2645L83.8245 5.08C84.7645 4.02 85.8845 3.48 87.2045 3.48C89.3445 3.48 90.7645 4.92 90.7645 7.34V14H89.1645V7.52C89.1645 5.82 88.2445 4.94 86.8845 4.94C85.8045 4.94 84.8045 5.48 83.9045 6.56V14ZM97.7847 14.24C95.1247 14.24 93.5047 12.78 93.5047 10.46V7.3C93.5047 4.98 95.1447 3.48 97.7847 3.48C100.365 3.48 101.945 4.94 101.945 7.26V9.4H95.1047V10.42C95.1047 11.84 96.0847 12.78 97.7847 12.78C99.2447 12.78 100.085 12.16 100.285 10.92H101.885C101.705 12.98 100.245 14.24 97.7847 14.24ZM95.1047 7.26V8.1H100.345V7.26C100.345 5.88 99.4047 4.94 97.7247 4.94C96.0647 4.94 95.1047 5.88 95.1047 7.26ZM106.385 14H104.785V3.72H105.625L106.205 5.08C107.165 4.02 108.285 3.48 109.565 3.48H109.825V5.04H109.605C108.265 5.04 107.185 5.52 106.385 6.48V14ZM115.833 14.24C113.193 14.24 111.353 12.92 111.353 10.52H112.953C112.953 11.98 114.253 12.78 115.953 12.78C117.413 12.78 118.353 12.12 118.353 11.22C118.353 10.5 117.893 10.1 116.753 9.8L114.213 9.14C112.633 8.74 111.753 8.02 111.753 6.5C111.753 4.72 113.273 3.48 115.733 3.48C118.233 3.48 119.793 4.72 119.793 7.1H118.193C118.193 5.68 117.153 4.94 115.613 4.94C114.153 4.94 113.353 5.58 113.353 6.4C113.353 7.12 113.753 7.46 114.813 7.76L117.313 8.38C119.053 8.8 119.953 9.56 119.953 11.1C119.953 13 118.373 14.24 115.833 14.24Z" fill="#E8E8E8"/>
</g>
</svg>
