<svg width="123" height="15" viewBox="0 0 123 15" fill="none" xmlns="http://www.w3.org/2000/svg">
<g style="mix-blend-mode:difference">
<path d="M0.36 13.06L5.2 -9.53674e-07H7.98L12.84 13.06V14H10.04L8.92 10.72H4.14L2.98 14H0.36V13.06ZM8.06 8.36L6.54 3.8L4.98 8.36H8.06ZM14.9631 -9.53674e-07H17.8031V11.52H24.2031V14H14.9631V-9.53674e-07ZM25.1303 13.06L29.4103 6.72L25.5303 0.939999V-9.53674e-07H28.4303L31.1703 4.5L34.0903 -9.53674e-07H36.8103V0.939999L32.8903 6.7L37.2103 13.06V14H34.3303L31.1103 9L27.8503 14H25.1303V13.06ZM44.2209 -9.53674e-07H50.4809C51.7476 -9.53674e-07 52.7343 0.399999 53.4409 1.2C54.1476 1.98667 54.5009 3.06 54.5009 4.42C54.5009 5.76667 54.1476 6.84 53.4409 7.64C52.7343 8.42667 51.7476 8.82 50.4809 8.82H47.0609V14H44.2209V-9.53674e-07ZM49.9609 6.34C50.3876 6.34 50.7676 6.18667 51.1009 5.88C51.4476 5.57333 51.6209 5.08 51.6209 4.4C51.6209 4.06667 51.5743 3.78 51.4809 3.54C51.3876 3.3 51.2609 3.1 51.1009 2.94C50.9543 2.78 50.7809 2.66667 50.5809 2.6C50.3809 2.52 50.1743 2.48 49.9609 2.48H47.0609V6.34H49.9609ZM59.3409 14.24C58.8743 14.24 58.4276 14.1733 58.0009 14.04C57.5743 13.9067 57.2009 13.7133 56.8809 13.46C56.5609 13.1933 56.3009 12.8667 56.1009 12.48C55.9143 12.0933 55.8209 11.64 55.8209 11.12C55.8209 10.04 56.1676 9.20667 56.8609 8.62C57.5676 8.02 58.6343 7.72 60.0609 7.72H62.2209V7.06C62.2209 6.60667 62.0876 6.26 61.8209 6.02C61.5543 5.76667 61.1276 5.64 60.5409 5.64C59.9409 5.64 59.5076 5.75333 59.2409 5.98C58.9876 6.20667 58.8609 6.49333 58.8609 6.84H56.3209C56.3209 6.32 56.4009 5.84667 56.5609 5.42C56.7343 4.98 56.9943 4.60667 57.3409 4.3C57.7009 3.98 58.1409 3.73333 58.6609 3.56C59.1943 3.37333 59.8209 3.28 60.5409 3.28C61.2609 3.28 61.8876 3.37333 62.4209 3.56C62.9543 3.73333 63.4009 3.98 63.7609 4.3C64.1209 4.62 64.3876 5 64.5609 5.44C64.7343 5.88 64.8209 6.36 64.8209 6.88V14H63.3209L62.5609 12.98C62.1743 13.3267 61.7343 13.6267 61.2409 13.88C60.7609 14.12 60.1276 14.24 59.3409 14.24ZM59.8809 11.88C60.3876 11.88 60.8276 11.8 61.2009 11.64C61.5743 11.4667 61.9143 11.2067 62.2209 10.86V9.7H60.0609C59.7143 9.7 59.4343 9.74 59.2209 9.82C59.0076 9.88667 58.8409 9.97333 58.7209 10.08C58.6009 10.1867 58.5209 10.3067 58.4809 10.44C58.4409 10.56 58.4209 10.6733 58.4209 10.78C58.4209 11.5133 58.9076 11.88 59.8809 11.88ZM67.8491 3.52H69.3491L70.1091 4.56C70.3624 4.26667 70.7024 3.98 71.1291 3.7C71.5691 3.42 72.1357 3.28 72.8291 3.28H73.3691V5.78H72.8291C72.2691 5.78 71.8024 5.85333 71.4291 6C71.0691 6.14667 70.7424 6.39333 70.4491 6.74V14H67.8491V3.52ZM80.0564 14C79.2831 14 78.6431 13.8867 78.1364 13.66C77.6431 13.4333 77.2497 13.1333 76.9564 12.76C76.6764 12.3867 76.4831 11.9667 76.3764 11.5C76.2697 11.02 76.2164 10.5267 76.2164 10.02V5.78H74.6764V3.52H76.2164V1.34H78.8164V3.52H81.1964V5.78H78.8164V10.02C78.8164 10.7 78.9497 11.16 79.2164 11.4C79.4964 11.6267 79.8697 11.74 80.3364 11.74H81.1964V14H80.0564ZM83.6108 3.52H85.1108L85.8708 4.56C86.2041 4.24 86.6174 3.94667 87.1108 3.68C87.6174 3.41333 88.2374 3.28 88.9708 3.28C90.1041 3.28 90.9908 3.64 91.6308 4.36C92.2841 5.06667 92.6108 6.06 92.6108 7.34V14H90.0108V7.5C90.0108 6.86 89.8508 6.39333 89.5308 6.1C89.2241 5.79333 88.8441 5.64 88.3908 5.64C88.1374 5.64 87.8974 5.68 87.6708 5.76C87.4441 5.84 87.2308 5.94 87.0308 6.06C86.8441 6.16667 86.6774 6.28667 86.5308 6.42C86.3974 6.54 86.2908 6.64667 86.2108 6.74V14H83.6108V3.52ZM99.7225 14.24C99.0425 14.24 98.4225 14.16 97.8625 14C97.3025 13.8267 96.8225 13.58 96.4225 13.26C96.0225 12.9267 95.7092 12.52 95.4825 12.04C95.2692 11.56 95.1625 11.0133 95.1625 10.4V7.16C95.1625 6.56 95.2692 6.02 95.4825 5.54C95.7092 5.06 96.0225 4.65333 96.4225 4.32C96.8225 3.98667 97.3025 3.73333 97.8625 3.56C98.4225 3.37333 99.0425 3.28 99.7225 3.28C100.363 3.28 100.949 3.36667 101.483 3.54C102.029 3.7 102.489 3.94667 102.863 4.28C103.249 4.6 103.549 5 103.763 5.48C103.976 5.96 104.083 6.50667 104.083 7.12V9.62H97.7625V10.36C97.7625 10.8 97.9158 11.1667 98.2225 11.46C98.5425 11.74 99.0425 11.88 99.7225 11.88C100.229 11.88 100.623 11.7867 100.903 11.6C101.183 11.4133 101.369 11.1533 101.463 10.82H104.062C103.956 11.9 103.529 12.74 102.783 13.34C102.036 13.94 101.016 14.24 99.7225 14.24ZM101.483 7.64V7.12C101.483 6.66667 101.323 6.30667 101.003 6.04C100.683 5.77333 100.223 5.64 99.6225 5.64C98.9958 5.64 98.5292 5.78 98.2225 6.06C97.9158 6.32667 97.7625 6.68 97.7625 7.12V7.64H101.483ZM106.736 3.52H108.236L108.996 4.56C109.249 4.26667 109.589 3.98 110.016 3.7C110.456 3.42 111.022 3.28 111.716 3.28H112.256V5.78H111.716C111.156 5.78 110.689 5.85333 110.316 6C109.956 6.14667 109.629 6.39333 109.336 6.74V14H106.736V3.52ZM118.297 14.24C117.604 14.24 116.971 14.1533 116.397 13.98C115.837 13.7933 115.351 13.5333 114.937 13.2C114.524 12.8667 114.197 12.4667 113.957 12C113.731 11.52 113.611 10.9867 113.597 10.4H116.177C116.244 10.8667 116.491 11.2333 116.917 11.5C117.344 11.7533 117.911 11.88 118.617 11.88C119.084 11.88 119.457 11.8 119.737 11.64C120.017 11.48 120.157 11.2667 120.157 11C120.157 10.6267 119.924 10.3867 119.457 10.28L116.557 9.54C116.224 9.46 115.891 9.35333 115.557 9.22C115.237 9.07333 114.944 8.89333 114.677 8.68C114.424 8.45333 114.217 8.17333 114.057 7.84C113.897 7.50667 113.817 7.10667 113.817 6.64C113.817 5.6 114.191 4.78 114.937 4.18C115.684 3.58 116.731 3.28 118.077 3.28C119.424 3.28 120.484 3.59333 121.257 4.22C122.044 4.83333 122.457 5.72 122.497 6.88H119.897C119.871 6.46667 119.677 6.16 119.317 5.96C118.971 5.74667 118.491 5.64 117.877 5.64C117.304 5.64 116.904 5.72667 116.677 5.9C116.451 6.07333 116.337 6.26667 116.337 6.48C116.337 6.68 116.411 6.84 116.557 6.96C116.717 7.06667 116.944 7.15333 117.237 7.22L120.217 7.96C120.564 8.04 120.884 8.15333 121.177 8.3C121.484 8.44667 121.744 8.63333 121.957 8.86C122.184 9.08667 122.357 9.36 122.477 9.68C122.611 9.98667 122.677 10.36 122.677 10.8C122.677 11.3333 122.571 11.8133 122.357 12.24C122.157 12.6667 121.864 13.0267 121.477 13.32C121.091 13.6133 120.624 13.84 120.077 14C119.544 14.16 118.951 14.24 118.297 14.24Z" fill="#E8E8E8"/>
</g>
</svg>
