<svg width="204" height="60" viewBox="0 0 204 60" fill="none" xmlns="http://www.w3.org/2000/svg">
<path d="M57.1674 57.8687L49.8581 29.7033L48.4098 29.6245L46.0879 36.5546L29.933 27.6915L22.9065 10.2631L0.940879 1.59521L0 2.53609L8.6679 24.5018L26.0963 31.5282L34.9594 47.6832L28.0293 50.005L28.1081 51.4533L56.2735 58.7626L57.1674 57.8687ZM7.98193 15.4838L4.37643 6.51526L4.84687 6.04482L13.8154 9.65032L7.98193 15.4838ZM48.8781 34.4522L51.1956 43.382L46.9526 42.1394L48.5136 34.4484L48.8807 34.4496L48.8781 34.4522ZM40.81 48.8398L42.0526 53.0828L33.1228 50.7653L33.1217 50.3982L40.8126 48.8372L40.81 48.8398Z" fill="#171818"/>
<path d="M68.3136 52.4902H65.6449V51.5285L71.6556 35.6604H74.4926L80.5032 51.5285V52.4902H77.6662L76.1756 48.3309H69.8283L68.3136 52.4902ZM73.026 39.5072L70.6939 45.9266H75.31L73.026 39.5072ZM93.3709 52.4902H82.4315V35.6604H85.3166V49.9658H93.3709V52.4902ZM96.627 52.4902H93.8621V51.5285L99.1274 43.7868L94.2708 36.6221V35.6604H97.204L100.931 41.5268L104.825 35.6604H107.59V36.6221L102.686 43.7628L107.999 51.5285V52.4902H105.066L100.858 46.0949L96.627 52.4902ZM117.392 52.4902H115.3V35.6604H122.345C125.23 35.6604 126.985 37.6319 126.985 40.7334C126.985 43.8349 125.23 45.7824 122.345 45.7824H117.392V52.4902ZM117.392 37.5117V43.9311H121.984C123.715 43.9311 124.845 42.753 124.845 40.7334C124.845 38.6898 123.715 37.5117 121.984 37.5117H117.392ZM132.188 52.7787C129.856 52.7787 128.101 51.5045 128.101 49.1964C128.101 46.6719 129.856 45.2534 133.222 45.2534H136.324V44.0272C136.324 42.5126 135.362 41.5989 133.462 41.5989C131.635 41.5989 130.625 42.5366 130.625 43.883H128.75C128.75 41.4787 130.385 39.8438 133.462 39.8438C136.564 39.8438 138.247 41.4787 138.247 43.907V52.4902H137.093L136.372 50.9275C135.506 51.9132 133.943 52.7787 132.188 52.7787ZM132.573 51.0236C133.919 51.0236 135.169 50.4466 136.324 49.2926V46.8162H133.222C131.082 46.8162 130.024 47.5375 130.024 48.98C130.024 50.3264 131.034 51.0236 132.573 51.0236ZM143.293 52.4902H141.369V40.1324H142.379L143.076 41.7672C144.231 40.493 145.577 39.8438 147.116 39.8438H147.428V41.7192H147.164C145.553 41.7192 144.255 42.2962 143.293 43.4502V52.4902ZM155.643 52.4902H154.489C153.071 52.4902 152.037 52.1056 151.436 51.3602C150.835 50.5909 150.546 49.6292 150.546 48.4751V41.8153H148.527V40.1324H150.546V37.5598H152.47V40.1324H155.643V41.8153H152.47V48.427C152.47 49.9658 153.143 50.7351 154.489 50.7351H155.643V52.4902ZM160 52.4902H158.076V40.1324H159.23L159.903 41.7672C161.033 40.493 162.38 39.8438 163.967 39.8438C166.539 39.8438 168.246 41.5749 168.246 44.4841V52.4902H166.323V44.7004C166.323 42.6568 165.217 41.5989 163.582 41.5989C162.284 41.5989 161.082 42.2481 160 43.5464V52.4902ZM175.964 52.7787C172.766 52.7787 170.819 51.0236 170.819 48.2347V44.436C170.819 41.647 172.79 39.8438 175.964 39.8438C179.066 39.8438 180.965 41.5989 180.965 44.3879V46.9604H172.742V48.1866C172.742 49.8936 173.92 51.0236 175.964 51.0236C177.719 51.0236 178.729 50.2783 178.969 48.7877H180.893C180.676 51.2641 178.921 52.7787 175.964 52.7787ZM172.742 44.3879V45.3977H179.042V44.3879C179.042 42.7289 177.912 41.5989 175.892 41.5989C173.896 41.5989 172.742 42.7289 172.742 44.3879ZM185.581 52.4902H183.658V40.1324H184.668L185.365 41.7672C186.519 40.493 187.866 39.8438 189.404 39.8438H189.717V41.7192H189.452C187.841 41.7192 186.543 42.2962 185.581 43.4502V52.4902ZM196.218 52.7787C193.044 52.7787 190.832 51.1919 190.832 48.3068H192.756C192.756 50.0619 194.319 51.0236 196.362 51.0236C198.117 51.0236 199.247 50.2302 199.247 49.1483C199.247 48.2828 198.694 47.8019 197.324 47.4413L194.27 46.6479C192.371 46.167 191.313 45.3015 191.313 43.4743C191.313 41.3345 193.14 39.8438 196.098 39.8438C199.103 39.8438 200.978 41.3345 200.978 44.1955H199.055C199.055 42.4885 197.805 41.5989 195.953 41.5989C194.198 41.5989 193.237 42.3683 193.237 43.3541C193.237 44.2196 193.717 44.6283 194.992 44.989L197.997 45.7343C200.089 46.2392 201.171 47.1528 201.171 49.0041C201.171 51.2881 199.271 52.7787 196.218 52.7787Z" fill="#171818"/>
</svg>
