<svg width="205" height="58" viewBox="0 0 205 58" fill="none" xmlns="http://www.w3.org/2000/svg">
<path d="M57.1674 56.8687L49.8581 28.7033L48.4098 28.6245L46.0879 35.5546L29.933 26.6915L22.9065 9.26312L0.940879 0.595215L0 1.53609L8.6679 23.5018L26.0963 30.5282L34.9594 46.6832L28.0293 49.005L28.1081 50.4533L56.2735 57.7626L57.1674 56.8687ZM7.98193 14.4838L4.37643 5.51526L4.84687 5.04482L13.8154 8.65032L7.98193 14.4838ZM48.8781 33.4522L51.1956 42.382L46.9526 41.1394L48.5136 33.4484L48.8807 33.4496L48.8781 33.4522ZM40.81 47.8398L42.0526 52.0828L33.1228 49.7653L33.1217 49.3982L40.8126 47.8372L40.81 47.8398Z" fill="#000"/>
<path d="M65.6483 52.4902V51.5285L71.659 35.6604H74.496L80.5066 51.5285V52.4902H77.6696L76.179 48.3309H69.8317L68.3171 52.4902H65.6483ZM70.6973 45.9266H75.3134L73.0294 39.5072L70.6973 45.9266ZM82.4349 52.4902V35.6604H85.32V49.9658H93.3743V52.4902H82.4349ZM93.8655 52.4902V51.5285L99.1308 43.7868L94.2742 36.6221V35.6604H97.2074L100.934 41.5268L104.829 35.6604H107.594V36.6221L102.689 43.7628L108.003 51.5285V52.4902H105.069L100.862 46.0949L96.6304 52.4902H93.8655ZM115.231 52.4902V35.6604H122.516C125.522 35.6604 127.253 37.656 127.253 40.8296C127.253 44.0032 125.522 45.9987 122.516 45.9987H118.117V52.4902H115.231ZM118.117 43.4743H122.011C123.262 43.4743 124.32 42.6328 124.32 40.8296C124.32 39.0264 123.262 38.1849 122.011 38.1849H118.117V43.4743ZM132.403 52.7787C130.168 52.7787 128.22 51.5526 128.22 49.1002C128.22 46.5036 129.903 45.0851 133.389 45.0851H136.13V44.0994C136.13 42.8732 135.409 42.1038 133.774 42.1038C132.139 42.1038 131.418 42.8492 131.418 43.883H128.845C128.845 41.4787 130.408 39.6996 133.774 39.6996C137.14 39.6996 138.775 41.4787 138.775 43.9311V52.4902H137.236L136.226 51.0958C135.481 51.9613 134.207 52.7787 132.403 52.7787ZM132.932 50.3745C134.303 50.3745 135.361 49.7975 136.13 48.956V47.1047H133.389C131.442 47.1047 130.865 47.9462 130.865 48.8117C130.865 49.8696 131.682 50.3745 132.932 50.3745ZM141.77 52.4902V39.9881H143.093L144.102 41.3826C144.8 40.5892 145.978 39.6996 147.541 39.6996H148.021V42.2241H147.661C146.218 42.2241 145.256 42.6087 144.415 43.5704V52.4902H141.77ZM156.524 52.4902H155.25C151.764 52.4902 150.898 50.2543 150.898 48.0183V42.2962H148.975V39.9881H150.898V37.3915H153.543V39.9881H156.524V42.2962H153.543V48.0424C153.543 49.6773 154.216 50.1821 155.25 50.1821H156.524V52.4902ZM158.806 52.4902V39.9881H160.345L161.33 41.3826C162.076 40.517 163.23 39.6996 165.033 39.6996C167.605 39.6996 169.36 41.4066 169.36 44.436V52.4902H166.716V44.6764C166.716 42.8732 165.682 42.1038 164.432 42.1038C163.013 42.1038 161.979 43.1136 161.45 43.7147V52.4902H158.806ZM177.144 52.7787C173.874 52.7787 171.807 51.0958 171.807 48.1866V44.3398C171.807 41.5028 173.874 39.6996 177.144 39.6996C180.294 39.6996 182.289 41.3826 182.289 44.2917V47.1047H174.452V48.1385C174.452 49.4609 175.317 50.3745 177.144 50.3745C178.611 50.3745 179.404 49.7494 179.621 48.7155H182.265C182.001 51.24 180.222 52.7787 177.144 52.7787ZM174.452 45.0851H179.645V44.2917C179.645 42.9694 178.779 42.1038 177.048 42.1038C175.317 42.1038 174.452 42.9694 174.452 44.2917V45.0851ZM184.857 52.4902V39.9881H186.18L187.189 41.3826C187.887 40.5892 189.065 39.6996 190.627 39.6996H191.108V42.2241H190.748C189.305 42.2241 188.343 42.6087 187.502 43.5704V52.4902H184.857ZM197.56 52.7787C194.218 52.7787 192.078 51.1439 192.078 48.1866H194.723C194.723 49.6292 195.949 50.3745 197.777 50.3745C199.219 50.3745 200.085 49.8456 200.085 49.0041C200.085 48.403 199.748 47.9702 198.714 47.7058L195.468 46.8643C193.93 46.4796 192.463 45.6621 192.463 43.5464C192.463 41.2383 194.266 39.6996 197.416 39.6996C200.469 39.6996 202.513 41.2383 202.513 44.1715H199.868C199.868 42.753 198.786 42.1038 197.248 42.1038C195.709 42.1038 195.108 42.7289 195.108 43.4262C195.108 43.9792 195.565 44.3879 196.478 44.6283L199.7 45.4217C201.455 45.8785 202.729 46.696 202.729 48.7877C202.729 51.1679 200.686 52.7787 197.56 52.7787Z" fill="#000"/>
</svg>
